<svg xmlns="http://www.w3.org/2000/svg">
   <symbol id="walkicon"  viewBox="0 0 334 211" version="1.1">

    <g id="Page-3" stroke="none" stroke-width="1" fill="none" fill-rule="evenodd">
        <g id="walkpath">
            <path d="M148.936151,19.8980787 C141.941413,19.8980787 115.627582,32.2683427 79.4883912,47.8825912 C43.3492005,63.4968397 24.0301078,67.3718052 10.0406309,75.3673802 C-3.94884598,83.3629552 -0.45147676,97.8549349 3.54551664,106.350233 C7.54251003,114.845532 21.9999588,123.742594 34.0225913,133.835022 C46.0452238,143.927451 49.0113165,150.325896 61.0022967,150.325896 C72.9932769,150.325896 77.9895186,151.825066 87.482378,151.825066 C96.9752373,151.825066 94.4621972,156.445643 101.471855,157.322024 C108.481512,158.198405 109.465842,151.825066 116.46058,151.825066 C123.455319,151.825066 131.948929,149.326449 139.942916,157.322024 C147.936903,165.317599 148.936151,167.816216 158.429011,171.814004 C167.92187,175.811791 170.015949,171.148966 174.916608,173.812897 C179.817268,176.476828 173.811636,174.68513 196.400448,189.304324 C218.98926,203.923518 228.876019,213.790772 234.871509,210.292708 C240.867,206.794644 276.340316,162.818982 279.338061,154.823407 C281.336558,149.493023 286.665882,143.662917 295.326035,137.333086 C305.651601,128.671214 311.314008,121.175362 312.313256,114.845532 C313.812129,105.350786 319.807619,102.852169 327.301982,100.853276 C334.796344,98.8543818 334.960133,94.7295111 332.797848,84.8621255 C330.635563,74.9947399 315.810626,69.8704224 319.307995,62.8742943 C322.805364,55.8781662 324.259979,54.6662986 322.30574,47.8825912 C320.426414,41.358927 318.577014,40.7670517 311.665364,35.5378844 C311.389855,35.3294417 311.096796,35.1184462 310.814384,34.8897818 C300.322276,26.3944834 301.821149,38.3878459 292.328289,24.8953131 C285.999717,15.9002912 274.841443,8.57101411 258.85347,2.90748182 C250.193317,0.242290151 242.698955,-0.590582244 236.370382,0.408864631 C226.877523,1.90803494 229.250049,5.79893547 221.881281,7.90471619 C214.512512,10.0104969 208.794098,6.04008366 201.896314,9.90360994 C194.99853,13.7671362 197.399696,16.4000146 194.401951,19.8980787 C191.404206,23.3961427 178.413978,23.3961427 170.419991,28.3933771 C162.426004,33.3906115 155.93089,19.8980787 148.936151,19.8980787 Z" id="Path" fill="#BBF5FB"></path>
            <path d="M104.687765,90.5098988 C106.446764,90.5098988 107.978616,90.3497262 109.283368,90.029376 C110.588119,89.7090259 111.830031,89.2673377 113.00914,88.7042981 L113.00914,81.0450563 L107.761165,81.0450563 C107.258594,81.0450563 106.862342,80.9042985 106.572397,80.6227787 C106.282452,80.3412589 106.137482,79.9966451 106.137482,79.5889267 L106.137482,75.1622927 L120.083759,75.1622927 L120.083759,92.1990092 C119.020628,92.9756155 117.914022,93.6502821 116.763907,94.2230293 C115.613793,94.7957765 114.386378,95.266587 113.081626,95.635475 C111.776874,96.0043631 110.380328,96.2810249 108.891944,96.4654689 C107.403561,96.6499129 105.799223,96.7421336 104.078884,96.7421336 C101.024798,96.7421336 98.2123757,96.2082247 95.6415315,95.140391 C93.0706873,94.0725573 90.8478103,92.5873199 88.9728337,90.6846344 C87.0978571,88.7819488 85.6336577,86.5104093 84.5801914,83.8699478 C83.5267252,81.2294862 83,78.3463784 83,75.2205379 C83,72.055867 83.5122282,69.1533444 84.5366999,66.5128828 C85.5611717,63.8724212 87.0157064,61.6008818 88.9003479,59.6981962 C90.7849893,57.7955107 93.0706868,56.3199808 95.7575089,55.2715622 C98.444331,54.2231436 101.459712,53.6989422 104.803742,53.6989422 C108.225092,53.6989422 111.187317,54.2085825 113.690507,55.2278783 C116.193698,56.2471741 118.315095,57.5722388 120.054764,59.2031121 L117.793206,62.7560684 C117.348624,63.4744293 116.759078,63.8336043 116.024551,63.8336043 C115.618629,63.8336043 115.205312,63.7146883 114.784591,63.476853 L114.603829,63.3676428 C113.98528,62.9987548 113.352243,62.6298723 112.7047,62.2609843 C112.057156,61.8920963 111.34197,61.571751 110.559119,61.2999388 C109.776268,61.0281266 108.896781,60.8048556 107.920634,60.6301192 C106.944486,60.4553827 105.818551,60.3680158 104.542793,60.3680158 C102.47452,60.3680158 100.604404,60.7174835 98.9323889,61.4164292 C97.2603737,62.1153749 95.834833,63.1152405 94.655724,64.4160562 C93.476615,65.7168718 92.5681349,67.2797686 91.9302562,69.1047935 C91.2923776,70.9298184 90.9734431,72.9683795 90.9734431,75.2205379 C90.9734431,77.6474327 91.311707,79.8073367 91.9882449,81.7003147 C92.6647828,83.5932926 93.6119218,85.1901655 94.8296901,86.4909811 C96.0474584,87.7917967 97.4971692,88.7868087 99.1788408,89.4760468 C100.860521,90.1652849 102.696811,90.5098988 104.687765,90.5098988 Z M130.908645,66.3963924 L130.908645,85.3843226 C130.908645,87.2093475 131.329059,88.6217791 132.169899,89.6216597 C133.010739,90.6215404 134.27198,91.1214732 135.95366,91.1214732 C137.190758,91.1214732 138.35052,90.8448114 139.432981,90.2914794 C140.515441,89.7381474 141.539898,88.9761138 142.50638,88.0053559 L142.50638,66.3963924 L149.667982,66.3963924 L149.667982,96.2761721 L145.289837,96.2761721 C144.362013,96.2761721 143.753138,95.8393376 143.463194,94.9656554 L142.97029,92.5776029 C142.351741,93.1988879 141.713872,93.7667728 141.056663,94.2812745 C140.399455,94.7957762 139.698766,95.2326107 138.954574,95.5917912 C138.210382,95.9509716 137.408214,96.2324872 136.548044,96.4363463 C135.687874,96.6402055 134.764897,96.7421336 133.779085,96.7421336 C132.155393,96.7421336 130.720188,96.4654717 129.473425,95.9121397 C128.226663,95.3588077 127.178044,94.5773592 126.32754,93.567771 C125.477035,92.5581828 124.834333,91.3593147 124.399416,89.9711309 C123.964499,88.582947 123.747043,87.0540262 123.747043,85.3843226 L123.747043,66.3963924 L130.908645,66.3963924 Z M162.348506,66.3963924 L162.348506,96.2761721 L155.186904,96.2761721 L155.186904,66.3963924 L162.348506,66.3963924 Z M163.421296,57.6887374 C163.421296,58.3100224 163.295656,58.8924684 163.04437,59.4360929 C162.793085,59.9797173 162.459653,60.4553816 162.044065,60.8630999 C161.628478,61.2708182 161.140411,61.5960173 160.579851,61.8387067 C160.019291,62.0813962 159.420081,62.2027391 158.782202,62.2027391 C158.163653,62.2027391 157.57894,62.0813962 157.028045,61.8387067 C156.47715,61.5960173 155.998748,61.2708182 155.592825,60.8630999 C155.186902,60.4553816 154.863135,59.9797173 154.621515,59.4360929 C154.379894,58.8924684 154.259086,58.3100224 154.259086,57.6887374 C154.259086,57.0480371 154.379894,56.4461762 154.621515,55.8831366 C154.863135,55.320097 155.186902,54.8347254 155.592825,54.427007 C155.998748,54.0192887 156.47715,53.6940897 157.028045,53.4514002 C157.57894,53.2087107 158.163653,53.0873678 158.782202,53.0873678 C159.420081,53.0873678 160.019291,53.2087107 160.579851,53.4514002 C161.140411,53.6940897 161.628478,54.0192887 162.044065,54.427007 C162.459653,54.8347254 162.793085,55.320097 163.04437,55.8831366 C163.295656,56.4461762 163.421296,57.0480371 163.421296,57.6887374 Z M188.772346,96.2761721 C187.844523,96.2761721 187.235648,95.8393376 186.945703,94.9656554 L186.365816,92.0825188 C185.747267,92.7814645 185.099733,93.4124477 184.423195,93.9754873 C183.746658,94.5385269 183.016974,95.0238986 182.234123,95.4316169 C181.451272,95.8393352 180.610444,96.1548268 179.711615,96.3781011 C178.812786,96.6013755 177.841486,96.713011 176.797684,96.713011 C175.173993,96.713011 173.685632,96.3732508 172.332556,95.6937202 C170.97948,95.0141897 169.814886,94.0288852 168.838739,92.7377771 C167.862591,91.4466691 167.108746,89.8497962 166.57718,87.9471107 C166.045615,86.0444252 165.779836,83.86996 165.779836,81.42365 C165.779836,79.210322 166.079441,77.152346 166.67866,75.2496605 C167.27788,73.3469749 168.138036,71.6967112 169.259156,70.2988198 C170.380277,68.9009284 171.723667,67.8088421 173.28937,67.0225282 C174.855072,66.2362142 176.614044,65.8430632 178.566339,65.8430632 C180.228689,65.8430632 181.649398,66.1100176 182.828507,66.6439345 C184.007616,67.1778513 185.061066,67.8913477 185.98889,68.784445 L185.98889,53 L193.150491,53 L193.150491,96.2761721 L188.772346,96.2761721 Z M179.233209,91.0049829 C180.721592,91.0049829 181.987666,90.694345 183.031467,90.0730599 C184.075269,89.4517749 185.061066,88.5683984 185.98889,87.422904 L185.98889,74.0265116 C185.177044,73.0363385 184.292726,72.3374033 183.335908,71.929685 C182.37909,71.5219666 181.349801,71.3181105 180.248011,71.3181105 C179.16555,71.3181105 178.184585,71.5219666 177.305085,71.929685 C176.425586,72.3374033 175.681405,72.9538253 175.072521,73.7789696 C174.463637,74.6041138 173.9949,75.6525166 173.666296,76.9242095 C173.337692,78.1959024 173.173392,79.6957009 173.173392,81.42365 C173.173392,83.1710143 173.31353,84.6513979 173.59381,85.8648453 C173.87409,87.0782928 174.275174,88.068451 174.797075,88.8353498 C175.318976,89.6022485 175.956845,90.1555722 176.710701,90.4953375 C177.464558,90.8351028 178.305385,91.0049829 179.233209,91.0049829 Z M210.586087,65.930431 C212.461063,65.930431 214.186209,66.2313614 215.761576,66.8332313 C217.336943,67.4351012 218.694831,68.313624 219.835281,69.4688259 C220.97573,70.6240278 221.864881,72.0413132 222.50276,73.7207244 C223.140638,75.4001356 223.459573,77.3173537 223.459573,79.4724364 C223.459573,80.0160608 223.435411,80.4674565 223.387087,80.8266369 C223.338763,81.1858173 223.251781,81.4673329 223.126138,81.6711921 C223.000495,81.8750512 222.831363,82.0206627 222.618737,82.1080309 C222.406111,82.1953992 222.1355,82.2390826 221.806896,82.2390826 L203.424485,82.2390826 C203.637111,85.3066777 204.458609,87.5588023 205.889004,88.995524 C207.319398,90.4322457 209.213676,91.1505958 211.571894,91.1505958 C212.731674,91.1505958 213.731968,91.0146918 214.572808,90.7428796 C215.413648,90.4710673 216.148164,90.1701369 216.776378,89.8400792 L217.493119,89.4579905 C217.832932,89.2739361 218.144909,89.1003662 218.429055,88.9372788 C218.902632,88.6654666 219.361704,88.5295625 219.806286,88.5295625 C220.096231,88.5295625 220.347513,88.5878071 220.560139,88.7042981 C220.73024,88.7974909 220.881783,88.9217463 221.01477,89.0770669 L223.198624,91.8204155 C222.406108,92.7523431 221.516957,93.5337915 220.531145,94.1647841 C219.545332,94.7957768 218.516044,95.3005633 217.443248,95.6791589 C216.370452,96.0577545 215.278343,96.324709 214.166888,96.4800302 C213.055432,96.6353515 211.97782,96.713011 210.934019,96.713011 C208.865746,96.713011 206.942474,96.3683971 205.164145,95.6791589 C203.385817,94.9899208 201.839468,93.9706403 200.525051,92.6212867 C199.210635,91.2719332 198.176514,89.6022546 197.422657,87.6122009 C196.668801,85.6221471 196.291878,83.3166316 196.291878,80.6955852 C196.291878,78.6569936 196.620477,76.7397754 197.277685,74.9438733 C197.934894,73.1479711 198.8772,71.5850743 200.104633,70.2551359 C201.332067,68.9251975 202.830092,67.871941 204.598756,67.0953346 C206.367419,66.3187283 208.363176,65.930431 210.586087,65.930431 Z M210.731058,71.0851298 C208.643456,71.0851298 207.010124,71.6772832 205.831015,72.8616079 C204.651906,74.0459326 203.898061,75.7253186 203.569457,77.8998164 L217.02283,77.8998164 C217.02283,76.9678888 216.897189,76.089366 216.645903,75.2642218 C216.394618,74.4390775 216.008031,73.7158737 215.48613,73.0945886 C214.964229,72.4733036 214.307031,71.9830782 213.514515,71.6238977 C212.721999,71.2647173 211.794189,71.0851298 210.731058,71.0851298 Z M247.621855,96.2761721 C246.694031,96.2761721 246.085156,95.8393376 245.795212,94.9656554 L245.215325,92.0825188 C244.596776,92.7814645 243.949242,93.4124477 243.272704,93.9754873 C242.596166,94.5385269 241.866483,95.0238986 241.083632,95.4316169 C240.300781,95.8393352 239.459953,96.1548268 238.561124,96.3781011 C237.662295,96.6013755 236.690995,96.713011 235.647193,96.713011 C234.023502,96.713011 232.535141,96.3732508 231.182065,95.6937202 C229.828989,95.0141897 228.664395,94.0288852 227.688247,92.7377771 C226.7121,91.4466691 225.958254,89.8497962 225.426689,87.9471107 C224.895123,86.0444252 224.629345,83.86996 224.629345,81.42365 C224.629345,79.210322 224.92895,77.152346 225.528169,75.2496605 C226.127388,73.3469749 226.987545,71.6967112 228.108665,70.2988198 C229.229785,68.9009284 230.573176,67.8088421 232.138878,67.0225282 C233.70458,66.2362142 235.463553,65.8430632 237.415848,65.8430632 C239.078198,65.8430632 240.498907,66.1100176 241.678016,66.6439345 C242.857125,67.1778513 243.910575,67.8913477 244.838398,68.784445 L244.838398,53 L252,53 L252,96.2761721 L247.621855,96.2761721 Z M238.082718,91.0049829 C239.571101,91.0049829 240.837175,90.694345 241.880976,90.0730599 C242.924777,89.4517749 243.910575,88.5683984 244.838398,87.422904 L244.838398,74.0265116 C244.026553,73.0363385 243.142234,72.3374033 242.185416,71.929685 C241.228599,71.5219666 240.19931,71.3181105 239.097519,71.3181105 C238.015059,71.3181105 237.034093,71.5219666 236.154594,71.929685 C235.275095,72.3374033 234.530914,72.9538253 233.92203,73.7789696 C233.313146,74.6041138 232.844409,75.6525166 232.515805,76.9242095 C232.1872,78.1959024 232.022901,79.6957009 232.022901,81.42365 C232.022901,83.1710143 232.163039,84.6513979 232.443319,85.8648453 C232.723599,87.0782928 233.124683,88.068451 233.646584,88.8353498 C234.168485,89.6022485 234.806354,90.1555722 235.56021,90.4953375 C236.314067,90.8351028 237.154894,91.0049829 238.082718,91.0049829 Z M104.871729,115.42277 L111.42445,115.42277 C112.100988,115.42277 112.666372,115.582943 113.120618,115.903293 C113.574865,116.223643 113.879303,116.655624 114.03394,117.199248 L121.166547,142.390291 C121.340514,143.011576 121.499982,143.686242 121.644954,144.414311 C121.789926,145.142379 121.930064,145.91412 122.065372,146.729557 C122.220009,145.91412 122.389141,145.142379 122.572773,144.414311 C122.756405,143.686242 122.95453,143.011576 123.167157,142.390291 L131.401549,117.199248 C131.556186,116.7527 131.860624,116.344987 132.31487,115.976099 C132.769117,115.607211 133.324837,115.42277 133.982045,115.42277 L136.272598,115.42277 C136.949136,115.42277 137.509687,115.582943 137.954269,115.903293 C138.398851,116.223643 138.708121,116.655624 138.882088,117.199248 L147.058492,142.390291 C147.483744,143.632861 147.851002,145.011316 148.160276,146.525699 C148.295584,145.768507 148.435722,145.04045 148.580694,144.341504 C148.725667,143.642559 148.875469,142.99216 149.030107,142.390291 L156.162714,117.199248 C156.298021,116.713869 156.597627,116.29645 157.061538,115.946977 C157.52545,115.597504 158.086002,115.42277 158.74321,115.42277 L164.861015,115.42277 L151.842557,157.534039 L144.796933,157.534039 L135.634722,128.760917 L135.396324,127.984315 C135.355518,127.84841 135.314174,127.709269 135.272293,127.566891 C135.14665,127.139758 135.025842,126.683508 134.909864,126.198129 C134.793886,126.683508 134.673077,127.139758 134.547435,127.566891 L134.302594,128.382323 C134.262861,128.511757 134.223665,128.637955 134.185005,128.760917 L124.935811,157.534039 L117.890187,157.534039 L104.871729,115.42277 Z M186.877716,157.534039 L183.659345,157.534039 C182.982807,157.534039 182.451249,157.43211 182.064656,157.228251 C181.678063,157.024392 181.388122,156.611826 181.194826,155.990541 L180.55695,153.864592 C179.803094,154.544122 179.063746,155.14113 178.338884,155.655631 C177.614021,156.170133 176.865009,156.602114 176.091822,156.951587 C175.318636,157.30106 174.497138,157.56316 173.627304,157.737897 C172.757469,157.912633 171.791001,158 170.72787,158 C169.471442,158 168.31168,157.83012 167.248549,157.490355 C166.185418,157.150589 165.272106,156.640949 164.508584,155.961419 C163.745063,155.281888 163.150685,154.437341 162.725432,153.427753 C162.30018,152.418165 162.087557,151.243565 162.087557,149.903919 C162.087557,148.77784 162.38233,147.666339 162.971884,146.569383 C163.561439,145.472426 164.542404,144.482268 165.91481,143.598878 C167.287215,142.715488 169.11384,141.982577 171.394739,141.400122 C173.675639,140.817668 176.507391,140.487615 179.890081,140.409954 L179.890081,138.662599 C179.890081,136.662837 179.469667,135.182454 178.628827,134.221403 C177.787987,133.260353 176.565405,132.779835 174.961043,132.779835 C173.801264,132.779835 172.834795,132.915739 172.061609,133.187551 C171.288423,133.459364 170.616728,133.765148 170.046503,134.104913 L169.383112,134.496321 C169.061855,134.68387 168.756256,134.859187 168.466311,135.022275 C167.98307,135.294087 167.451512,135.429991 166.871623,135.429991 C166.388381,135.429991 165.9728,135.303794 165.624866,135.051397 C165.276932,134.799 164.996657,134.488362 164.78403,134.119474 L163.479285,131.81879 C166.900634,128.673534 171.027454,127.10093 175.859868,127.10093 C177.599537,127.10093 179.150718,127.387299 180.513459,127.960046 C181.8762,128.532793 183.031129,129.328803 183.978282,130.348099 C184.925435,131.367394 185.645454,132.585677 186.138361,134.002984 C186.631267,135.420291 186.877716,136.97348 186.877716,138.662599 L186.877716,157.534039 Z M172.960434,153.049159 C173.694961,153.049159 174.371488,152.981207 174.990037,152.845301 C175.608586,152.709395 176.1933,152.505539 176.744195,152.233727 C177.29509,151.961915 177.826648,151.627008 178.338884,151.228997 C178.851119,150.830987 179.36818,150.360176 179.890081,149.816552 L179.890081,144.778343 C177.802478,144.875419 176.058003,145.055006 174.656603,145.317111 C173.255203,145.579216 172.129267,145.914122 171.278762,146.321841 C170.428257,146.729559 169.824215,147.205223 169.466616,147.748848 C169.109017,148.292472 168.930221,148.884625 168.930221,149.525326 C168.930221,150.787311 169.302311,151.690102 170.046503,152.233727 C170.790694,152.777351 171.761995,153.049159 172.960434,153.049159 Z M198.949359,114.257866 L198.949359,157.534039 L191.787757,157.534039 L191.787757,114.257866 L198.949359,114.257866 Z M211.687872,114.257866 L211.687872,139.041192 L213.021611,139.041192 C213.504853,139.041192 213.881775,138.97324 214.15239,138.837334 C214.423006,138.701428 214.712946,138.449035 215.022221,138.080147 L222.415777,128.90653 C222.744381,128.518227 223.09231,128.212443 223.459573,127.989169 C223.826836,127.765894 224.310071,127.654259 224.90929,127.654259 L231.46201,127.654259 L222.212816,138.749967 C221.884212,139.157685 221.545948,139.531421 221.198015,139.871186 C220.850081,140.210952 220.473158,140.507028 220.067235,140.759425 C220.473158,141.050653 220.830751,141.390413 221.140026,141.778716 C221.4493,142.167019 221.75857,142.584439 222.067845,143.030988 L231.983908,157.534039 L225.518171,157.534039 C224.957611,157.534039 224.484042,157.436964 224.097448,157.242813 C223.710855,157.048661 223.362927,156.718608 223.053652,156.252644 L215.48613,144.923956 C215.196185,144.477407 214.906245,144.186184 214.6163,144.050278 C214.326355,143.914372 213.891444,143.84642 213.311555,143.84642 L211.687872,143.84642 L211.687872,157.534039 L204.52627,157.534039 L204.52627,114.257866 L211.687872,114.257866 Z" id="GuidedWalk" fill="#4B3CA2" fill-rule="nonzero"></path>
        </g>
    </g>

     </symbol>
</svg>